<svg width="66" height="80" viewBox="0 0 66 80" fill="none" xmlns="http://www.w3.org/2000/svg">
<path fill-rule="evenodd" clip-rule="evenodd" d="M54.0777 26.1598V16.0318L49.1103 13.1635L44.1429 16.0318L49.1103 18.8987V25.2042V32.1781L44.1429 29.3112V24.2472L16.3701 18.9028L49.1103 0L65.4804 28.3542L54.0777 26.1598ZM0 61.0944V28.3542L16.3701 18.9028L32.7402 47.257V80L22.3898 74.0244V77.314L10.2372 70.1177V67.005L0 61.0944ZM22.3829 74.0164V70.7765L13.0903 65.4114V62.202L22.3898 67.5671V64.3314L15.7901 60.5213L13.0972 62.202V49.0979C13.0823 48.4435 13.213 47.794 13.4797 47.1963C11.5588 47.1051 10.251 48.3701 10.251 50.6957V67.0064L22.3829 74.0164ZM38.1039 57.0827C38.1039 54.7834 39.9682 51.8446 42.2662 50.5175C44.5655 49.1904 46.4284 49.9776 46.4284 52.2769V63.333L38.1039 68.1402V57.0827ZM55.9544 42.6142C53.6565 43.9413 51.7922 46.8814 51.7922 49.1794V60.2368L60.1167 55.431V44.3736C60.1167 42.0756 58.2538 41.2912 55.9544 42.6142Z" fill="#222222"/>
</svg>
